<svg width="361" height="319" viewBox="0 0 361 319" fill="none" xmlns="http://www.w3.org/2000/svg"><path d="M292 285.521c0-9.388-7.611-17-17-17v24a7 7 0 0 0 7 7h6a4 4 0 0 0 4-4z" fill="#FFF59F"/><path d="M288 282.521c0-7.179-5.82-13-13-13v23a7 7 0 0 0 7 7h2a4 4 0 0 0 4-4zm-124 3c0-9.388 7.611-17 17-17v24a7 7 0 0 1-7 7h-6a4 4 0 0 1-4-4z" fill="#C19805"/><path d="M168 290.521c0-7.179 5.82-13 13-13v15a7 7 0 0 1-7 7h-2.333a3.666 3.666 0 0 1-3.667-3.666z" fill="#FFF59F"/><rect y="311.521" width="270" height="7" rx="3.5" fill="#081E5A"/><path d="M175.384 241.223C174.648 235.26 179.3 230 185.308 230h87.384c6.008 0 10.66 5.26 9.924 11.223l-8.172 66.298c-.395 3.202-2.315 6.047-5.403 6.984-3.935 1.195-9.929 2.259-16.546.754-7.748-1.763-16.349-11.816-23.495-11.816s-15.747 10.053-23.495 11.816c-6.617 1.505-12.611.441-16.546-.754-3.088-.937-5.008-3.782-5.403-6.984z" fill="#5D7FDC"/><circle cx="208.536" cy="15.09" r="14.5" transform="rotate(-2.382 208.536 15.09)" fill="#C19805"/><circle cx="209.452" cy="13.05" r="12.5" transform="rotate(-2.382 209.452 13.05)" fill="#FFF59F"/><path d="m205.596 27.416 7.209-1.036s11.423 36.636 16.345 65.474c6.14 35.985 6.869 87.441 6.869 87.441l-7.209 1.036s-.728-51.456-6.869-87.44c-4.921-28.839-16.345-65.475-16.345-65.475" fill="#738FDD"/><path d="m208.531 27 7.209-1.036s11.439 36.738 16.373 65.654c6.155 36.083 6.904 87.677 6.904 87.677l-7.208 1.036s-.75-51.594-6.905-87.676C219.971 63.738 208.531 27 208.531 27" fill="#ACC3FF"/><path d="M179.391 241.229c-.739-5.965 3.914-11.229 9.924-11.229h80.37c6.01 0 10.663 5.264 9.924 11.229l-7.513 60.66c-.397 3.207-2.325 6.058-5.427 6.962-3.686 1.073-9.153 1.968-15.169.606-7.255-1.643-15.308-14.013-22-14.013s-14.745 12.37-22 14.013c-6.016 1.362-11.483.467-15.169-.606-3.102-.904-5.03-3.755-5.427-6.962z" fill="#84A6FF"/><rect x="263" y="280.521" width="7" height="24" rx="3.5" fill="#F1F1F1" fill-opacity=".4"/><path d="m179.5 259.521 98.5.5-1.794 13.5H182z" fill="#5D7FDC" fill-opacity=".8"/><rect x="96" y="91.522" width="265" height="175" rx="50" fill="#6E8EE4"/><path d="M198 152c0-17.881-92.614-44.048-78.5-52.886 7.683-4.811 16.766-7.593 26.5-7.593h165c27.614 0 50 22.386 50 50v75a49.77 49.77 0 0 1-9.981 29.979c-9.121 12.157-53.651-56-70.019-56v-4c-27.615 0-40-.386-40-28z" fill="#fff"/><rect x="105" y="100.521" width="248" height="157" rx="50" fill="#C0D1FF"/><rect x="129" y="128.521" width="183" height="112" rx="30" fill="#1C2C56" fill-opacity=".3"/><rect x="136.5" y="122.021" width="185" height="114" rx="31.5" fill="#738FDD" stroke="#4265C3" stroke-width="3"/><path d="M194 153.539c0-8.772-52.235-16.665-46.233-22.151A29.9 29.9 0 0 1 168 123.539h122c16.569 0 30 13.432 30 30v51a29.86 29.86 0 0 1-5 16.589c-.759 1.142-25.095-17.614-26-16.589-5.497 6.228 3.46-16.039-5.5-16.039l-32-17c-16.569 0-35-1.392-35-17.961z" fill="#fff"/><rect x="141" y="127.521" width="175" height="103" rx="30" fill="#4265C3"/><path d="M176.716 172.944c2.669-4.631 5.515-11.516 9.206-14.948a3.64 3.64 0 0 1 1.847-.956c2.311-.469 5.046 1.98 6.674 3.97 1.723 2.106 4.361 5.104 5.234 8.085m73.433 2.05c-2.922-4.34-6.148-10.908-10.022-13.944a3.46 3.46 0 0 0-1.895-.761c-2.331-.226-4.92 2.501-6.43 4.655-1.599 2.28-4.061 5.544-4.763 8.607m-67.935 23.309c-.148 4.28-1.186 6.679 3.024 6.473 10.671-.522 21.291-1.76 32.008-2.026 18.321-.455 36.64.589 54.943 1.22 1.685.059 2.023.548 1.701-1.791-.152-1.111-.118-2.501-.349-3.57-.447-2.062-.951-4.431-.869-6.791" stroke="#D0DDFF" stroke-width="8" stroke-linecap="round"/></svg>